<?xml version="1.0" encoding="UTF-8" standalone="no"?>
<!-- Created with Inkscape (http://www.inkscape.org/) -->

<svg
   width="1.73in"
   height="2in"
   viewBox="0 0 43.942001 50.799999"
   version="1.1"
   id="svg1"
   inkscape:version="1.4.2 (ebf0e940, 2025-05-08)"
   sodipodi:docname="FoRecoPy.svg"
   xmlns:inkscape="http://www.inkscape.org/namespaces/inkscape"
   xmlns:sodipodi="http://sodipodi.sourceforge.net/DTD/sodipodi-0.dtd"
   xmlns="http://www.w3.org/2000/svg"
   xmlns:svg="http://www.w3.org/2000/svg">
  <sodipodi:namedview
     id="namedview1"
     pagecolor="#ffffff"
     bordercolor="#000000"
     borderopacity="0.25"
     inkscape:showpageshadow="2"
     inkscape:pageopacity="0.0"
     inkscape:pagecheckerboard="0"
     inkscape:deskcolor="#d1d1d1"
     inkscape:document-units="mm"
     inkscape:zoom="1.699832"
     inkscape:cx="80.302053"
     inkscape:cy="117.65869"
     inkscape:current-layer="g1" />
  <defs
     id="defs1" />
  <g
     id="g1"
     transform="translate(-81.468177,-106.50842)"
     inkscape:label="recopy">
    <polygon
       fill="#264776"
       points="11.55,127.555 11.55,42.506 85.039,0 158.528,42.506 158.528,127.555 85.039,170.079 "
       id="polygon12"
       style="fill:#2c5f8a;fill-opacity:1"
       inkscape:label="hex"
       transform="matrix(0.29868473,0,0,0.29868473,78.039326,106.50842)" />
    <g
       id="g24"
       inkscape:label="icon"
       transform="matrix(0.29868473,0,0,0.29868473,78.039326,106.50842)">
      <path
         fill="#A5C2DF"
         d="m 77.474,81.158 c -0.462,-0.526 -1.201,-0.698 -1.897,-0.642 -1.1,0.087 -2.115,-0.237 -2.783,-0.998 -1.331,-1.513 -0.771,-4.184 1.246,-5.957 2.016,-1.773 4.736,-1.985 6.067,-0.472 0.669,0.76 0.86,1.808 0.634,2.888 -0.146,0.685 -0.071,1.44 0.39,1.966 0.644,0.732 1.76,0.804 2.492,0.16 l 3.246,-2.853 c 1.514,-1.331 3.823,-1.181 5.15,0.333 l 14.467,16.46 c 1.331,1.513 1.181,3.819 -0.33,5.15 l -3.248,2.854 c -0.731,0.644 -1.85,0.571 -2.493,-0.159 -0.46,-0.528 -0.534,-1.281 -0.39,-1.966 0.228,-1.08 0.037,-2.127 -0.634,-2.889 -1.33,-1.513 -4.048,-1.303 -6.067,0.474 -2.018,1.769 -2.577,4.442 -1.247,5.954 0.671,0.763 1.685,1.084 2.784,0.998 0.698,-0.055 1.436,0.116 1.897,0.644 0.643,0.728 0.57,1.846 -0.158,2.489 l -6.905,6.067 c -1.514,1.329 -3.823,1.181 -5.152,-0.33 l -6.067,-6.904 c -0.642,-0.733 -0.572,-1.85 0.16,-2.491 0.527,-0.464 1.281,-0.538 1.966,-0.39 1.078,0.224 2.125,0.032 2.887,-0.637 1.515,-1.331 1.302,-4.049 -0.472,-6.069 -1.771,-2.017 -4.442,-2.575 -5.957,-1.246 -0.761,0.671 -1.083,1.687 -0.997,2.784 0.056,0.697 -0.115,1.438 -0.641,1.898 -0.731,0.646 -1.849,0.572 -2.492,-0.159 l -2.854,-3.248 c -1.329,-1.513 -1.181,-3.819 0.333,-5.153 l 6.904,-6.065 c 0.731,-0.643 0.806,-1.761 0.161,-2.491 z"
         id="path19"
         style="fill:#fed142;fill-opacity:1" />
      <g
         id="g20"
         style="fill:#fed142;fill-opacity:1">
        <path
           fill="#A5C2DF"
           d="m 48.375,112.537 c -0.374,-0.561 -1.06,-0.821 -1.737,-0.856 -1.062,-0.058 -1.992,-0.496 -2.534,-1.311 -1.078,-1.619 -0.201,-4.102 1.955,-5.538 2.156,-1.442 4.787,-1.299 5.865,0.32 0.544,0.814 0.592,1.841 0.238,2.845 -0.229,0.639 -0.253,1.368 0.122,1.933 0.522,0.782 1.581,0.992 2.363,0.469 l 3.47,-2.312 c 1.619,-1.084 3.809,-0.642 4.887,0.976 l 2.315,3.472 c 0.522,0.782 1.583,0.99 2.364,0.469 0.562,-0.374 0.82,-1.06 0.854,-1.735 0.06,-1.065 0.498,-1.993 1.312,-2.532 1.62,-1.08 4.102,-0.201 5.541,1.951 1.439,2.157 1.293,4.784 -0.326,5.864 -0.811,0.542 -1.837,0.593 -2.842,0.24 -0.637,-0.229 -1.367,-0.252 -1.93,0.122 -0.782,0.523 -0.995,1.58 -0.472,2.364 l 4.921,7.377 c 1.081,1.62 0.645,3.812 -0.976,4.887 l -3.468,2.318 c -0.783,0.519 -1.842,0.309 -2.365,-0.474 -0.374,-0.561 -0.35,-1.292 -0.121,-1.931 0.354,-1.006 0.306,-2.032 -0.237,-2.842 -1.08,-1.619 -3.709,-1.765 -5.866,-0.325 -2.157,1.437 -3.035,3.924 -1.954,5.541 0.542,0.812 1.471,1.253 2.534,1.311 0.677,0.034 1.361,0.293 1.737,0.855 0.521,0.782 0.309,1.839 -0.475,2.36 l -7.378,4.925 c -1.619,1.077 -3.809,0.642 -4.889,-0.979 L 39.548,124.71 c -1.081,-1.619 -0.644,-3.809 0.976,-4.889 l 7.378,-4.923 c 0.783,-0.52 0.994,-1.582 0.473,-2.361 z"
           id="path20"
           style="fill:#fed142;fill-opacity:1" />
      </g>
      <path
         fill="#A5C2DF"
         d="m 88.358,129.275 c -0.663,-0.122 -1.325,0.189 -1.823,0.65 -0.78,0.722 -1.744,1.084 -2.703,0.904 -1.913,-0.351 -3.084,-2.713 -2.614,-5.26 0.468,-2.549 2.404,-4.337 4.317,-3.986 0.96,0.178 1.731,0.86 2.206,1.813 0.298,0.609 0.806,1.133 1.469,1.257 0.926,0.171 1.814,-0.445 1.986,-1.367 l 0.757,-4.102 c 0.352,-1.913 2.189,-3.177 4.104,-2.826 l 4.102,0.754 c 0.923,0.171 1.813,-0.442 1.984,-1.363 0.122,-0.664 -0.188,-1.328 -0.651,-1.827 -0.722,-0.779 -1.083,-1.744 -0.906,-2.701 0.354,-1.915 2.714,-3.087 5.264,-2.616 2.548,0.469 4.334,2.401 3.983,4.318 -0.179,0.962 -0.859,1.73 -1.81,2.206 -0.609,0.297 -1.136,0.805 -1.259,1.469 -0.17,0.928 0.442,1.813 1.367,1.984 l 8.724,1.607 c 1.912,0.355 3.18,2.189 2.828,4.106 l -0.757,4.102 c -0.171,0.925 -1.059,1.536 -1.984,1.368 -0.665,-0.122 -1.172,-0.65 -1.47,-1.26 -0.477,-0.952 -1.246,-1.631 -2.205,-1.809 -1.917,-0.353 -3.851,1.433 -4.32,3.981 -0.471,2.55 0.702,4.909 2.615,5.265 0.96,0.173 1.924,-0.185 2.704,-0.906 0.497,-0.464 1.159,-0.773 1.825,-0.653 0.924,0.171 1.535,1.062 1.365,1.986 l -1.607,8.723 c -0.354,1.914 -2.194,3.181 -4.105,2.828 l -8.726,-1.608 c -0.923,-0.171 -1.536,-1.061 -1.364,-1.983 0.121,-0.665 0.649,-1.175 1.256,-1.47 0.953,-0.473 1.634,-1.246 1.81,-2.205 0.354,-1.915 -1.433,-3.849 -3.982,-4.321 -2.548,-0.468 -4.908,0.704 -5.26,2.616 -0.178,0.962 0.183,1.924 0.904,2.706 0.461,0.498 0.772,1.16 0.649,1.82 -0.171,0.927 -1.06,1.538 -1.984,1.37 l -4.102,-0.757 c -1.914,-0.355 -3.179,-2.193 -2.826,-4.106 l 1.607,-8.722 c 0.17,-0.924 -0.443,-1.814 -1.368,-1.985 z"
         id="path21"
         style="fill:#fed142;fill-opacity:1" />
      <g
         display="none"
         id="g22">
        <path
           display="inline"
           fill="#e2e2e4"
           d="m 48.263,102.726 c 1.972,-0.295 3.708,0.369 4.643,1.771 0.737,1.101 0.867,2.484 0.367,3.898 -0.127,0.355 -0.13,0.694 -0.007,0.877 0.112,0.168 0.313,0.259 0.513,0.229 0.076,-0.012 0.146,-0.042 0.212,-0.085 l 3.47,-2.312 c 0.582,-0.391 1.227,-0.64 1.917,-0.741 1.793,-0.268 3.603,0.535 4.608,2.044 l 2.315,3.47 c 0.113,0.166 0.315,0.256 0.516,0.226 0.075,-0.011 0.146,-0.039 0.21,-0.08 0.185,-0.125 0.312,-0.434 0.331,-0.819 0.083,-1.494 0.735,-2.72 1.834,-3.451 0.481,-0.32 1.021,-0.528 1.607,-0.613 2.01,-0.3 4.196,0.835 5.572,2.893 1.798,2.699 1.504,6.063 -0.652,7.502 -0.482,0.323 -1.025,0.53 -1.612,0.618 -0.726,0.108 -1.514,0.023 -2.287,-0.249 -0.233,-0.083 -0.465,-0.115 -0.649,-0.088 -0.091,0.015 -0.165,0.04 -0.225,0.079 -0.24,0.161 -0.305,0.488 -0.146,0.729 L 75.722,126 c 0.699,1.047 0.947,2.302 0.7,3.538 -0.248,1.229 -0.959,2.293 -2.002,2.987 l -3.47,2.316 c -0.356,0.237 -0.75,0.39 -1.173,0.452 -1.102,0.164 -2.212,-0.328 -2.827,-1.253 -0.545,-0.816 -0.637,-1.903 -0.255,-2.98 0.142,-0.398 0.315,-1.165 -0.104,-1.792 -0.417,-0.625 -1.29,-0.904 -2.335,-0.75 -0.646,0.097 -1.301,0.355 -1.895,0.752 -0.968,0.646 -1.657,1.585 -1.841,2.513 -0.075,0.373 -0.098,0.92 0.216,1.391 0.42,0.63 1.193,0.764 1.615,0.784 1.141,0.063 2.109,0.563 2.658,1.382 0.878,1.324 0.518,3.119 -0.804,3.998 l -7.379,4.928 c -0.582,0.385 -1.227,0.634 -1.915,0.735 -1.796,0.268 -3.606,-0.533 -4.613,-2.041 L 38.564,125.365 c -1.439,-2.159 -0.854,-5.087 1.303,-6.526 l 7.381,-4.923 c 0.239,-0.159 0.303,-0.484 0.146,-0.722 -0.125,-0.188 -0.438,-0.313 -0.82,-0.335 -1.492,-0.08 -2.718,-0.731 -3.453,-1.834 -1.439,-2.161 -0.415,-5.379 2.281,-7.177 0.882,-0.587 1.871,-0.977 2.861,-1.122 m -0.086,-0.586 c -1.077,0.161 -2.15,0.581 -3.103,1.218 -2.966,1.978 -4.063,5.564 -2.445,7.996 0.841,1.26 2.231,2.005 3.913,2.097 0.115,0.005 0.207,0.025 0.272,0.046 l -7.274,4.852 c -2.428,1.622 -3.086,4.916 -1.466,7.345 l 11.735,17.595 c 1.133,1.698 3.169,2.6 5.19,2.3 0.774,-0.115 1.5,-0.395 2.154,-0.83 l 7.38,-4.928 c 1.592,-1.059 2.027,-3.221 0.967,-4.814 -0.653,-0.976 -1.789,-1.573 -3.118,-1.645 -0.312,-0.017 -0.878,-0.108 -1.156,-0.523 -0.202,-0.303 -0.182,-0.684 -0.129,-0.948 0.155,-0.777 0.75,-1.576 1.591,-2.137 0.521,-0.348 1.093,-0.576 1.654,-0.657 0.801,-0.12 1.475,0.067 1.757,0.491 0.277,0.415 0.144,0.974 0.039,1.271 -0.446,1.25 -0.329,2.528 0.32,3.502 0.741,1.114 2.077,1.707 3.404,1.509 0.51,-0.074 0.985,-0.257 1.414,-0.545 l 3.472,-2.316 c 1.174,-0.781 1.975,-1.977 2.253,-3.363 0.278,-1.389 -0.001,-2.805 -0.788,-3.981 l -4.855,-7.278 c 0.065,0.01 0.156,0.025 0.262,0.064 0.863,0.305 1.752,0.399 2.574,0.277 0.673,-0.102 1.296,-0.339 1.852,-0.711 2.43,-1.619 2.795,-5.352 0.816,-8.32 -1.501,-2.245 -3.915,-3.483 -6.15,-3.149 -0.673,0.1 -1.296,0.337 -1.85,0.706 -1.258,0.835 -2.002,2.227 -2.095,3.91 -0.006,0.12 -0.026,0.21 -0.045,0.274 l -2.246,-3.368 c -1.132,-1.695 -3.168,-2.597 -5.187,-2.3 -0.779,0.118 -1.505,0.397 -2.159,0.835 l -3.367,2.245 c 0.009,-0.063 0.026,-0.154 0.064,-0.261 0.564,-1.599 0.411,-3.17 -0.432,-4.427 -1.062,-1.601 -3.014,-2.359 -5.218,-2.032 z"
           id="path22" />
      </g>
      <path
         display="none"
         fill="#e2e2e4"
         d="m 76.833,70.96 c 1.672,-0.249 3.189,0.243 4.16,1.349 0.896,1.02 1.217,2.408 0.902,3.913 -0.084,0.399 -0.038,0.758 0.123,0.942 0.132,0.148 0.328,0.22 0.526,0.191 0.11,-0.018 0.212,-0.063 0.297,-0.139 l 3.249,-2.854 c 0.698,-0.614 1.554,-1.012 2.472,-1.148 1.635,-0.243 3.259,0.351 4.344,1.589 l 14.466,16.458 c 1.759,2.002 1.563,5.062 -0.437,6.821 l -3.247,2.854 c -0.427,0.374 -0.949,0.618 -1.51,0.699 -0.996,0.149 -1.987,-0.213 -2.65,-0.969 -0.661,-0.752 -0.9,-1.841 -0.658,-2.985 0.091,-0.44 0.167,-1.265 -0.365,-1.866 -0.433,-0.491 -1.175,-0.701 -2.039,-0.572 -0.817,0.122 -1.655,0.53 -2.363,1.153 -0.913,0.803 -1.497,1.869 -1.562,2.858 -0.024,0.403 0.027,0.979 0.423,1.428 0.531,0.603 1.359,0.635 1.802,0.603 1.169,-0.095 2.219,0.286 2.879,1.038 1.073,1.216 0.955,3.079 -0.264,4.156 l -6.904,6.067 c -0.701,0.616 -1.557,1.013 -2.478,1.148 -1.633,0.245 -3.256,-0.351 -4.342,-1.584 l -6.07,-6.907 c -1.071,-1.223 -0.95,-3.089 0.271,-4.154 0.426,-0.379 0.972,-0.625 1.578,-0.716 0.455,-0.066 0.93,-0.048 1.407,0.056 0.339,0.069 0.661,0.081 0.955,0.039 0.36,-0.055 0.667,-0.191 0.912,-0.405 0.604,-0.531 0.633,-1.354 0.599,-1.8 -0.067,-0.881 -0.496,-1.827 -1.176,-2.603 -0.967,-1.1 -2.295,-1.704 -3.384,-1.543 -0.357,0.056 -0.662,0.189 -0.907,0.403 -0.603,0.531 -0.635,1.356 -0.601,1.8 0.095,1.167 -0.283,2.219 -1.037,2.881 -0.426,0.376 -0.949,0.621 -1.51,0.704 -0.996,0.147 -1.986,-0.215 -2.65,-0.969 L 69.19,95.648 c -1.757,-2 -1.559,-5.06 0.44,-6.819 l 6.904,-6.067 c 0.158,-0.14 0.191,-0.312 0.197,-0.401 0.005,-0.091 -0.005,-0.266 -0.145,-0.425 -0.159,-0.182 -0.512,-0.275 -0.918,-0.243 -1.509,0.12 -2.88,-0.39 -3.762,-1.396 -0.882,-1.002 -1.211,-2.425 -0.902,-3.902 0.287,-1.374 1.088,-2.696 2.253,-3.72 1.045,-0.918 2.315,-1.527 3.576,-1.715 m -0.086,-0.584 c -1.372,0.204 -2.75,0.863 -3.878,1.854 -1.261,1.108 -2.128,2.543 -2.442,4.042 -0.348,1.663 0.032,3.271 1.038,4.414 1.005,1.148 2.555,1.729 4.252,1.595 0.271,-0.021 0.416,0.04 0.44,0.057 l -6.915,6.047 c -2.246,1.976 -2.466,5.408 -0.495,7.652 l 2.854,3.248 c 0.798,0.906 1.986,1.34 3.18,1.163 0.673,-0.1 1.3,-0.393 1.813,-0.843 0.895,-0.789 1.347,-2.019 1.236,-3.372 -0.025,-0.335 -0.008,-0.95 0.403,-1.311 0.156,-0.136 0.36,-0.226 0.603,-0.263 0.882,-0.13 2.029,0.41 2.855,1.35 0.596,0.68 0.974,1.501 1.031,2.258 0.025,0.335 0.009,0.95 -0.4,1.309 -0.158,0.138 -0.363,0.23 -0.608,0.265 -0.229,0.035 -0.48,0.023 -0.746,-0.032 -0.548,-0.117 -1.092,-0.139 -1.618,-0.06 -0.718,0.105 -1.368,0.403 -1.881,0.855 -1.464,1.28 -1.61,3.519 -0.324,4.987 l 6.072,6.907 c 1.218,1.386 3.04,2.053 4.871,1.78 1.035,-0.154 1.997,-0.602 2.781,-1.291 l 6.903,-6.065 c 1.464,-1.294 1.605,-3.531 0.319,-4.994 -0.786,-0.893 -2.013,-1.345 -3.369,-1.236 -0.335,0.027 -0.951,0.009 -1.313,-0.401 -0.262,-0.3 -0.295,-0.708 -0.275,-0.999 0.054,-0.837 0.563,-1.756 1.36,-2.454 0.623,-0.55 1.354,-0.907 2.061,-1.013 0.662,-0.1 1.211,0.039 1.509,0.38 0.362,0.409 0.3,1.021 0.23,1.35 -0.281,1.331 0.008,2.604 0.792,3.497 0.797,0.909 1.985,1.346 3.182,1.168 0.674,-0.1 1.3,-0.393 1.813,-0.842 l 3.246,-2.854 c 2.245,-1.977 2.465,-5.409 0.49,-7.653 L 93.351,74.414 c -1.217,-1.389 -3.04,-2.057 -4.873,-1.784 -1.033,0.153 -1.993,0.599 -2.777,1.29 l -3.248,2.854 c 0.007,-0.01 -0.036,-0.163 0.021,-0.428 0.355,-1.691 -0.014,-3.263 -1.036,-4.425 -1.108,-1.261 -2.817,-1.823 -4.691,-1.545 z"
         id="path23" />
      <path
         display="none"
         fill="#e2e2e4"
         d="m 103.704,107.395 c 0.771,-0.115 1.563,-0.099 2.358,0.049 3.189,0.588 5.4,3.142 4.934,5.695 -0.242,1.299 -1.11,2.381 -2.454,3.052 -0.341,0.164 -0.576,0.406 -0.616,0.621 -0.034,0.187 0.039,0.327 0.084,0.392 0.046,0.067 0.149,0.183 0.338,0.217 l 8.724,1.61 c 2.55,0.473 4.243,2.93 3.773,5.479 l -0.758,4.102 c -0.223,1.215 -1.193,2.152 -2.413,2.332 -0.313,0.048 -0.63,0.044 -0.946,-0.014 -0.965,-0.181 -1.811,-0.872 -2.313,-1.896 -0.189,-0.379 -0.619,-1.036 -1.363,-1.172 -0.163,-0.032 -0.332,-0.035 -0.501,-0.01 -1.119,0.166 -2.146,1.446 -2.439,3.045 -0.348,1.874 0.416,3.652 1.663,3.885 0.166,0.03 0.337,0.035 0.507,0.01 0.401,-0.063 0.813,-0.277 1.181,-0.616 0.567,-0.528 1.229,-0.865 1.907,-0.964 0.314,-0.046 0.629,-0.044 0.94,0.014 1.56,0.288 2.598,1.797 2.312,3.361 l -1.609,8.722 c -0.364,1.979 -1.945,3.509 -3.937,3.802 -0.512,0.079 -1.031,0.067 -1.544,-0.025 l -8.727,-1.607 c -0.756,-0.141 -1.415,-0.57 -1.852,-1.202 -0.438,-0.637 -0.599,-1.405 -0.46,-2.157 0.177,-0.969 0.868,-1.813 1.894,-2.313 0.378,-0.191 1.034,-0.616 1.173,-1.363 0.23,-1.25 -1.159,-2.598 -3.036,-2.943 -0.537,-0.1 -1.069,-0.111 -1.581,-0.035 -1.242,0.185 -2.146,0.854 -2.303,1.703 -0.137,0.745 0.323,1.379 0.609,1.688 0.781,0.84 1.123,1.875 0.946,2.837 -0.227,1.214 -1.196,2.152 -2.417,2.333 -0.313,0.046 -0.63,0.041 -0.944,-0.017 l -4.103,-0.757 c -2.55,-0.473 -4.243,-2.932 -3.773,-5.48 l 1.608,-8.718 c 0.052,-0.286 -0.139,-0.563 -0.42,-0.616 -0.05,-0.009 -0.104,-0.009 -0.16,0 -0.197,0.03 -0.435,0.159 -0.648,0.357 -0.724,0.669 -1.567,1.092 -2.439,1.221 -0.429,0.064 -0.861,0.055 -1.281,-0.021 -1.28,-0.238 -2.39,-1.126 -3.043,-2.443 -0.608,-1.223 -0.791,-2.713 -0.518,-4.194 0.48,-2.6 2.295,-4.637 4.417,-4.952 0.427,-0.064 0.856,-0.058 1.276,0.021 1.299,0.24 2.383,1.107 3.054,2.454 0.165,0.337 0.404,0.575 0.62,0.614 0.06,0.012 0.115,0.012 0.171,0.004 0.186,-0.027 0.395,-0.17 0.44,-0.422 l 0.756,-4.102 c 0.363,-1.977 1.944,-3.506 3.935,-3.802 0.513,-0.076 1.033,-0.066 1.545,0.028 l 4.104,0.754 c 0.057,0.009 0.113,0.012 0.169,0.002 0.185,-0.027 0.394,-0.168 0.438,-0.42 0.039,-0.219 -0.096,-0.527 -0.357,-0.81 -1.014,-1.098 -1.438,-2.42 -1.199,-3.721 0.344,-1.86 2.021,-3.278 4.278,-3.612 m -0.087,-0.583 c -2.51,0.371 -4.383,1.977 -4.772,4.087 -0.274,1.488 0.204,2.987 1.346,4.227 0.083,0.09 0.135,0.168 0.166,0.229 l -3.979,-0.736 c -0.577,-0.105 -1.161,-0.117 -1.739,-0.029 -2.24,0.332 -4.02,2.053 -4.427,4.276 l -0.736,3.986 c -0.035,-0.049 -0.091,-0.127 -0.142,-0.233 -0.757,-1.518 -1.99,-2.5 -3.476,-2.772 -0.483,-0.092 -0.978,-0.099 -1.471,-0.025 -2.368,0.354 -4.386,2.584 -4.913,5.431 -0.295,1.607 -0.092,3.228 0.57,4.563 0.738,1.486 2.001,2.491 3.467,2.762 0.486,0.088 0.98,0.097 1.473,0.022 0.991,-0.145 1.942,-0.62 2.754,-1.37 0.086,-0.08 0.165,-0.134 0.224,-0.163 l -1.586,8.598 c -0.528,2.869 1.377,5.638 4.247,6.171 l 4.103,0.756 c 0.38,0.069 0.761,0.076 1.139,0.019 1.469,-0.217 2.638,-1.347 2.91,-2.808 0.214,-1.148 -0.185,-2.369 -1.094,-3.345 -0.211,-0.23 -0.553,-0.692 -0.462,-1.181 0.109,-0.591 0.836,-1.082 1.811,-1.228 0.445,-0.064 0.912,-0.056 1.389,0.032 1.646,0.303 2.71,1.441 2.561,2.256 -0.093,0.494 -0.576,0.799 -0.854,0.939 -1.194,0.583 -2.003,1.582 -2.213,2.738 -0.168,0.908 0.028,1.831 0.555,2.598 0.526,0.763 1.318,1.277 2.229,1.448 l 8.728,1.605 c 0.579,0.106 1.165,0.118 1.739,0.032 2.24,-0.334 4.02,-2.053 4.429,-4.279 l 1.608,-8.725 c 0.346,-1.882 -0.903,-3.7 -2.784,-4.048 -0.374,-0.069 -0.756,-0.074 -1.135,-0.019 -0.797,0.12 -1.565,0.508 -2.224,1.118 -0.276,0.257 -0.583,0.42 -0.863,0.462 -0.106,0.016 -0.211,0.014 -0.313,-0.005 -0.813,-0.152 -1.494,-1.55 -1.19,-3.197 0.245,-1.336 1.083,-2.438 1.948,-2.567 0.103,-0.017 0.206,-0.014 0.308,0.005 0.49,0.09 0.801,0.576 0.938,0.857 0.588,1.193 1.585,1.998 2.735,2.21 0.383,0.069 0.765,0.076 1.141,0.021 1.471,-0.22 2.64,-1.35 2.907,-2.813 l 0.757,-4.099 c 0.529,-2.87 -1.376,-5.636 -4.245,-6.169 l -8.604,-1.587 c 0.048,-0.037 0.124,-0.093 0.225,-0.141 1.517,-0.757 2.5,-1.989 2.773,-3.477 0.53,-2.872 -1.896,-5.737 -5.403,-6.383 -0.862,-0.158 -1.721,-0.174 -2.555,-0.049 z"
         id="path24" />
    </g>
    <g
       id="g7"
       inkscape:label="text"
       transform="translate(0,0.52916667)">
      <path
         style="font-weight:bold;font-size:9.17222px;font-family:Chalkboard;-inkscape-font-specification:'Chalkboard Bold';fill:#ffffff;fill-rule:evenodd;stroke-linecap:round;stroke-linejoin:round;paint-order:stroke markers fill"
         d="m 113.17896,119.4807 q 0.0304,-0.11148 0.10135,-0.21283 0.0709,-0.11149 0.16216,-0.19257 0.10135,-0.0811 0.21284,-0.11148 0.12162,-0.0405 0.24324,0 0.375,-0.15203 0.76013,-0.25338 0.39526,-0.10135 0.7804,-0.11149 0.39526,-0.0203 0.77026,0.0709 0.38513,0.0811 0.73986,0.31419 0.28378,0.18243 0.49662,0.45607 0.22297,0.27365 0.36486,0.5777 0.24324,0.54729 0.22297,1.09459 -0.0203,0.53715 -0.25338,1.00337 -0.2331,0.46621 -0.65877,0.82094 -0.41554,0.35472 -0.9831,0.51688 -0.42568,0.12162 -0.87162,0.12162 -0.43581,-0.0101 -0.86148,-0.0608 v 0.9831 q 0,0.11149 0.0101,0.23311 0.0101,0.12162 0,0.24324 0,0.12162 -0.0304,0.23311 -0.0203,0.12162 -0.0912,0.22297 -0.12162,0.2027 -0.31419,0.24324 -0.19257,0.0507 -0.375,-0.0203 -0.17229,-0.0608 -0.30405,-0.22297 -0.12162,-0.15203 -0.12162,-0.375 v -1.82431 q -0.19257,-0.10135 -0.28378,-0.25337 -0.0912,-0.15203 -0.0811,-0.30406 0.0101,-0.16216 0.10135,-0.30405 0.0912,-0.14189 0.25338,-0.2331 v -2.59458 z m 2.9493,0.44595 q -0.42567,-0.1723 -0.87161,-0.10135 -0.43581,0.0709 -0.85135,0.26351 v 2.20944 q 0.47635,0.0811 0.97297,0.0405 0.49661,-0.0405 0.91215,-0.30405 0.29392,-0.19257 0.4054,-0.48649 0.11149,-0.29391 0.0811,-0.59796 -0.0304,-0.30406 -0.2027,-0.5777 -0.17229,-0.28378 -0.44594,-0.44594 z"
         id="path6" />
      <path
         style="font-weight:bold;font-size:9.17222px;font-family:Chalkboard;-inkscape-font-specification:'Chalkboard Bold';fill:#ffffff;fill-rule:evenodd;stroke-linecap:round;stroke-linejoin:round;paint-order:stroke markers fill"
         d="m 108.2736,122.76446 q 0.0709,-0.29392 0.19257,-0.5777 0.13175,-0.28378 0.31418,-0.53716 0.18243,-0.26351 0.4054,-0.47634 0.23311,-0.21284 0.49662,-0.34459 0.46621,-0.24325 0.93243,-0.24325 0.47634,-0.0101 0.88175,0.18244 0.4054,0.19256 0.68918,0.57769 0.28378,0.375 0.375,0.90202 0.0507,0.34459 0.0507,0.65878 0.0101,0.30405 -0.0608,0.63851 -0.10135,0.47635 -0.41554,0.95269 -0.30405,0.46622 -0.73985,0.7804 -0.42568,0.32432 -0.94256,0.42567 -0.50676,0.10136 -1.02364,-0.16216 -0.23311,-0.11148 -0.42568,-0.26351 -0.18243,-0.14189 -0.33445,-0.34459 -0.1723,-0.22297 -0.27365,-0.46621 -0.0912,-0.24324 -0.15203,-0.50675 -0.0709,-0.28379 -0.0507,-0.56757 0.0203,-0.29391 0.0709,-0.56756 z m 1.21621,0.21284 q -0.0304,0.16216 -0.0507,0.32432 -0.0203,0.15202 0,0.31418 0.0304,0.23311 0.12162,0.42568 0.10135,0.19256 0.25338,0.30405 0.16216,0.11148 0.36486,0.12162 0.2027,0 0.43581,-0.13176 0.29391,-0.17229 0.50675,-0.52702 0.21284,-0.36486 0.26351,-0.74999 0.0507,-0.39527 -0.0811,-0.73986 -0.13176,-0.35473 -0.51689,-0.50675 -0.25337,0 -0.46621,0.10135 -0.21284,0.0912 -0.375,0.25337 -0.15202,0.15203 -0.27364,0.36486 -0.11149,0.21284 -0.18243,0.44595 z"
         id="path5" />
      <path
         style="font-weight:bold;font-size:9.17222px;font-family:Chalkboard;-inkscape-font-specification:'Chalkboard Bold';fill:#ffffff;fill-rule:evenodd;stroke-linecap:round;stroke-linejoin:round;paint-order:stroke markers fill"
         d="m 106.75334,123.91986 q 0.25338,-0.16216 0.47635,-0.14189 0.2331,0.0203 0.37499,0.16216 0.15203,0.13175 0.16216,0.36486 0.0203,0.22297 -0.15202,0.47635 -0.11149,0.17229 -0.32432,0.31418 -0.2027,0.14189 -0.39527,0.22297 -0.44594,0.2027 -0.90202,0.18243 -0.45608,-0.0203 -0.85134,-0.22297 -0.38514,-0.2027 -0.66892,-0.55743 -0.28378,-0.36486 -0.38513,-0.8412 -0.2027,-0.91216 0.0811,-1.75337 0.11149,-0.30405 0.26351,-0.58783 0.16216,-0.28378 0.38513,-0.51689 0.22298,-0.2331 0.49662,-0.4054 0.27365,-0.18243 0.59797,-0.24324 0.22297,-0.0405 0.56756,0.0101 0.34459,0.0405 0.66892,0.1723 0.33445,0.13175 0.57769,0.34459 0.25338,0.21284 0.28378,0.50675 0.0203,0.16216 -0.0405,0.30405 -0.0608,0.13176 -0.17229,0.22298 -0.11149,0.0912 -0.26351,0.13175 -0.14189,0.0304 -0.29392,-0.0101 -0.18243,-0.0507 -0.29392,-0.13176 -0.10135,-0.0912 -0.27364,-0.23311 -0.0811,-0.0203 -0.15203,-0.0608 -0.0709,-0.0507 -0.15202,-0.0405 l -0.27365,0.0304 q -0.0709,0.0405 -0.13176,0.0709 -0.0608,0.0304 -0.12162,0.0608 -0.34459,0.34459 -0.50675,0.77026 -0.16216,0.41554 -0.0811,0.90202 0.0507,0.31418 0.19257,0.51689 0.15202,0.2027 0.34459,0.28378 0.2027,0.0709 0.43581,0.0101 0.24324,-0.0608 0.47634,-0.27364 z"
         id="path4" />
      <path
         style="font-weight:bold;font-size:9.17222px;font-family:Chalkboard;-inkscape-font-specification:'Chalkboard Bold';fill:#ffffff;fill-rule:evenodd;stroke-linecap:round;stroke-linejoin:round;paint-order:stroke markers fill"
         d="m 102.48647,123.82864 q 0.24324,-0.0608 0.42568,0 0.19256,0.0507 0.29391,0.18243 0.10135,0.13176 0.0912,0.32432 -0.0101,0.19257 -0.1723,0.4054 -0.13175,0.1723 -0.36486,0.29392 -0.23311,0.12162 -0.43581,0.19257 -0.49661,0.18243 -0.94256,0.25337 -0.44594,0.0709 -0.84121,0 -0.38513,-0.0709 -0.72972,-0.29391 -0.334456,-0.22297 -0.628373,-0.62838 -0.202701,-0.27364 -0.304051,-0.61823 -0.09122,-0.35473 -0.101351,-0.71959 -0.01014,-0.36486 0.06081,-0.71959 0.07095,-0.35473 0.202701,-0.63851 0.172296,-0.35473 0.547293,-0.64864 0.374997,-0.29392 0.831071,-0.46621 0.45608,-0.1723 0.93243,-0.19257 0.47635,-0.0304 0.84121,0.14189 0.30405,0.14189 0.51688,0.41554 0.22298,0.26351 0.30406,0.57769 0.0811,0.31419 0.0101,0.63851 -0.0608,0.31419 -0.32432,0.5777 -0.25338,0.25338 -0.55743,0.41554 -0.30405,0.15202 -0.62837,0.27364 -0.32432,0.11149 -0.66891,0.19257 -0.33446,0.0811 -0.64865,0.18243 0.21284,0.24324 0.48648,0.31419 0.27365,0.0608 0.56757,0.0203 0.30405,-0.0405 0.6081,-0.16216 0.30405,-0.13176 0.56756,-0.28378 z m -2.04728,-1.74323 q -0.2331,0.13176 -0.34459,0.33446 -0.111484,0.19256 -0.162159,0.54729 0.263509,-0.0811 0.587829,-0.17229 0.33446,-0.0912 0.62838,-0.19257 0.29391,-0.10135 0.49661,-0.22297 0.20271,-0.12162 0.20271,-0.26351 0,-0.0811 -0.0304,-0.15203 -0.0203,-0.0811 -0.10135,-0.11148 -0.28378,-0.10135 -0.58783,-0.0405 -0.30405,0.0608 -0.50676,0.17229 z"
         id="path3" />
      <path
         style="font-weight:bold;font-size:9.17222px;font-family:Chalkboard;-inkscape-font-specification:'Chalkboard Bold';fill:#ffffff;fill-rule:evenodd;stroke-linecap:round;stroke-linejoin:round;paint-order:stroke markers fill"
         d="m 94.226415,124.93336 q -0.03041,0.25338 -0.212836,0.41554 -0.182431,0.16216 -0.395267,0.2027 -0.212836,0.0507 -0.395267,-0.0405 -0.172296,-0.0912 -0.182431,-0.36486 -0.05067,-1.16553 -0.05067,-2.41215 0,-1.25674 0,-2.49322 -0.162161,-0.0608 -0.243241,-0.18243 -0.08108,-0.12162 -0.101351,-0.26351 -0.01014,-0.15203 0.04054,-0.30405 0.05068,-0.15203 0.152026,-0.26351 0.111486,-0.12162 0.304051,-0.22297 0.192566,-0.10135 0.415538,-0.18243 0.233106,-0.0912 0.456077,-0.15203 0.222971,-0.0608 0.374997,-0.0912 0.638508,-0.13175 1.287151,0.0101 0.648643,0.13176 1.135126,0.48648 0.496617,0.35473 0.739858,0.92229 0.243241,0.56756 0.05067,1.29729 -0.06081,0.2027 -0.152025,0.4054 -0.09122,0.2027 -0.212836,0.375 -0.172296,0.26351 -0.405402,0.46621 -0.233106,0.2027 -0.506753,0.375 0.192566,0.2027 0.364862,0.42567 0.172296,0.22297 0.385132,0.4054 0.08108,0.071 0.233106,0.22297 0.162161,0.15203 0.304052,0.32432 0.152025,0.1723 0.263511,0.34459 0.111485,0.16217 0.10135,0.27365 -0.01014,0.19257 -0.111485,0.34459 -0.09122,0.16216 -0.233106,0.24324 -0.131756,0.0912 -0.293917,0.0912 -0.162161,0 -0.324321,-0.11149 -0.182431,-0.14189 -0.344592,-0.33445 -0.162161,-0.19257 -0.314187,-0.35473 -0.334456,-0.36486 -0.658778,-0.72972 -0.314186,-0.375 -0.648643,-0.72973 -0.202701,0.0405 -0.415537,0.0608 -0.202701,0.0101 -0.405402,0.0304 v 1.43918 z m 1.814174,-4.90536 q -0.405402,-0.24324 -0.891885,-0.27365 -0.476347,-0.0304 -0.922289,0.13176 v 2.29052 q 0.456077,-0.0304 0.891884,-0.11149 0.445942,-0.0912 0.820939,-0.38513 0.202701,-0.16216 0.324322,-0.375 0.131756,-0.22297 0.152026,-0.44594 0.03041,-0.23311 -0.06081,-0.44594 -0.08108,-0.22297 -0.314187,-0.38513 z"
         id="path2" />
      <path
         style="font-weight:bold;font-size:9.17222px;font-family:Chalkboard;-inkscape-font-specification:'Chalkboard Bold';fill:#ffffff;fill-rule:evenodd;stroke-linecap:round;stroke-linejoin:round;paint-order:stroke markers fill"
         d="m 88.054174,122.76446 q 0.07095,-0.29392 0.192566,-0.5777 0.131756,-0.28378 0.314187,-0.53716 0.182431,-0.26351 0.405402,-0.47634 0.233106,-0.21284 0.496617,-0.34459 0.466213,-0.24325 0.932425,-0.24325 0.476347,-0.0101 0.881749,0.18244 0.405402,0.19256 0.689184,0.57769 0.283781,0.375 0.374996,0.90202 0.05068,0.34459 0.05068,0.65878 0.01014,0.30405 -0.06081,0.63851 -0.10135,0.47635 -0.415537,0.95269 -0.304051,0.46622 -0.739858,0.7804 -0.425672,0.32432 -0.94256,0.42567 -0.506752,0.10136 -1.02364,-0.16216 -0.233106,-0.11148 -0.425672,-0.26351 -0.182431,-0.14189 -0.334457,-0.34459 -0.172296,-0.22297 -0.273646,-0.46621 -0.09122,-0.24324 -0.152026,-0.50675 -0.07094,-0.28379 -0.05067,-0.56757 0.02027,-0.29391 0.07094,-0.56756 z m 1.216206,0.21284 q -0.03041,0.16216 -0.05067,0.32432 -0.02027,0.15202 0,0.31418 0.03041,0.23311 0.121621,0.42568 0.10135,0.19256 0.253376,0.30405 0.162161,0.11148 0.364862,0.12162 0.202701,0 0.435807,-0.13176 0.293916,-0.17229 0.506752,-0.52702 0.212836,-0.36486 0.263512,-0.74999 0.05067,-0.39527 -0.08108,-0.73986 -0.131755,-0.35473 -0.516887,-0.50675 -0.253377,0 -0.466213,0.10135 -0.212836,0.0912 -0.374996,0.25337 -0.152026,0.15203 -0.273647,0.36486 -0.111485,0.21284 -0.182431,0.44595 z"
         id="path1" />
      <path
         style="font-weight:bold;font-size:9.17222px;font-family:Chalkboard;-inkscape-font-specification:'Chalkboard Bold';fill:#ffffff;fill-rule:evenodd;stroke-linecap:round;stroke-linejoin:round;paint-order:stroke markers fill"
         d="m 85.226495,124.95363 q -0.03041,0.22297 -0.16216,0.38513 -0.131756,0.16216 -0.304052,0.22297 -0.172296,0.0608 -0.354727,0 -0.182431,-0.0608 -0.304051,-0.27364 -0.05067,-0.0811 -0.08108,-0.1723 -0.03041,-0.0912 -0.03041,-0.18243 v -2.39187 q -0.131755,-0.0811 -0.202701,-0.21284 -0.06081,-0.13175 -0.06081,-0.27364 0,-0.15203 0.07095,-0.28378 0.07095,-0.13176 0.192566,-0.22298 -0.01014,-0.19256 -0.01014,-0.32432 0.01014,-0.13175 0.01014,-0.25337 0,-0.12162 0,-0.24324 0,-0.13176 -0.02027,-0.30406 -0.01013,-0.14189 -0.07094,-0.27364 -0.05067,-0.14189 -0.09122,-0.27365 -0.04054,-0.14189 -0.03041,-0.28378 0.01014,-0.14189 0.121621,-0.27365 0.152026,-0.18243 0.364862,-0.21283 0.222971,-0.0405 0.445942,-0.0608 0.466212,-0.0304 0.922289,-0.0304 0.466213,0 0.932425,-0.0203 0.131756,0 0.283781,-0.0203 0.152026,-0.0304 0.304052,-0.0405 0.152026,-0.0203 0.304051,0 0.152026,0.0101 0.273647,0.0811 0.152025,0.0912 0.222971,0.23311 0.07094,0.14189 0.06081,0.29391 0,0.15203 -0.08108,0.29392 -0.08108,0.14189 -0.233106,0.22297 -0.263512,0.14189 -0.577698,0.15203 -0.314187,0 -0.597968,0.0101 -0.334457,0.0101 -0.668914,0.0101 -0.334456,-0.0101 -0.668913,0.0101 0.02027,0.19257 0.0304,0.45608 0.01014,0.26351 0.01014,0.77026 0.324322,0 0.658779,-0.0101 0.334456,-0.0101 0.658778,-0.0608 0.172296,-0.0203 0.364862,-0.0709 0.192566,-0.0608 0.364861,-0.0405 0.202701,0.0203 0.354727,0.15203 0.152026,0.13175 0.202701,0.30405 0.06081,0.16216 0,0.34459 -0.06081,0.1723 -0.273646,0.29392 -0.253376,0.14189 -0.547293,0.21283 -0.283781,0.0608 -0.587833,0.0912 -0.304051,0.0203 -0.608103,0.0203 -0.304051,-0.0101 -0.587833,-0.0101 v 2.26012 z"
         id="text1" />
      <path
         id="path2997-4-7"
         style="display:inline;fill:#ffffff;stroke-width:0.0195584"
         d="m 122.5463,120.509 c -0.07,0.002 -0.14123,0.0191 -0.21372,0.0512 -0.116,0.0451 -0.21282,0.13197 -0.29016,0.26086 l -0.0384,0.0581 c -0.116,0.40598 -0.24812,0.80551 -0.39633,1.1986 -0.14822,0.38665 -0.31608,0.77306 -0.50297,1.1597 -0.52198,-0.45109 -0.91154,-0.9954 -1.16931,-1.63337 -0.0322,-0.0774 -0.0612,-0.1642 -0.087,-0.26087 -0.0193,-0.0967 -0.0451,-0.19032 -0.0774,-0.28054 -0.0322,-0.0967 -0.0743,-0.18353 -0.12586,-0.26086 -0.0451,-0.0838 -0.10936,-0.14849 -0.19313,-0.1936 -0.10311,-0.0515 -0.20627,-0.0737 -0.30938,-0.0673 -0.0967,0.006 -0.18399,0.0386 -0.26132,0.0966 -0.0774,0.0515 -0.14158,0.12213 -0.19313,0.21235 -0.0451,0.0838 -0.0741,0.1806 -0.087,0.29016 -0.0129,0.0967 -0.003,0.19032 0.0288,0.28054 l 0.0966,0.27047 c 0.16754,0.52198 0.40599,1.00204 0.71531,1.44025 0.31576,0.43176 0.68633,0.82495 1.11165,1.17938 -1.60134,2.78336 -0.73905,1.17917 -2.35327,4.00404 l -0.0183,0.0599 c -0.0838,0.27082 -0.0473,0.49577 0.10892,0.6723 0.0857,0.0967 0.0987,0.10517 0.76612,0.48831 l 0.58306,0.33501 0.0407,0.009 c 0.34913,0.0812 0.72374,-0.17522 1.07549,-0.73637 0.0681,-0.10859 0.15078,-0.25663 0.20366,-0.36429 0.15718,-0.31999 0.23015,-0.58932 0.21693,-0.80136 -0.005,-0.0698 -0.0361,-0.18756 -0.0636,-0.23615 -0.0267,-0.0472 -0.0638,-0.0903 -0.10023,-0.11762 -0.015,-0.0114 -0.15423,-0.0924 -0.30937,-0.18032 l -0.24851,-0.17024 -0.36796,0.61005 -0.32951,0.53913 -0.0783,-0.0454 -0.12746,-0.12686 c -0.0169,-0.0311 1.23284,-1.98596 2.15213,-3.63004 0.25777,-0.46398 0.49622,-0.93771 0.71533,-1.42103 0.0515,-0.10954 0.11896,-0.26113 0.20274,-0.45444 0.0838,-0.19333 0.16431,-0.39603 0.24163,-0.60869 0.0838,-0.21266 0.15166,-0.41899 0.20321,-0.61875 0.058,-0.19977 0.0806,-0.35452 0.0677,-0.46406 -0.0193,-0.14822 -0.0741,-0.26722 -0.1643,-0.35744 -0.0838,-0.0902 -0.18377,-0.14859 -0.29976,-0.17437 -0.0411,-0.01 -0.0825,-0.0136 -0.12449,-0.0123 z m -1.90568,7.31152 c 0.0249,7.9e-4 0.0497,0.006 0.0741,0.0155 0.11826,0.0441 0.1807,0.18494 0.13501,0.30526 -0.007,0.018 -0.0145,0.0357 -0.017,0.0394 -0.0665,0.098 -0.18049,0.13644 -0.28832,0.0975 -0.14826,-0.0536 -0.20141,-0.24775 -0.10115,-0.36978 0.0493,-0.0599 0.12254,-0.0913 0.19725,-0.0879 z"
         sodipodi:nodetypes="sccccccccccccccccccccccccsssccccccccscscccccsscccssssc" />
    </g>
  </g>
</svg>
